# xmcd CD database file
#
# Track frame offsets:
#	150
#	24300
#	46125
#	71200
#	92476
#	112801
#	129751
#	145651
#	161551
#	180001
#
# Disc length: 2666 seconds
#
# Revision: 0
# Processed by: cddbd v1.5.1PL2 Copyright (c) Steve Scherf et al.
# Submitted via: CDex 1.51
#
DISCID=6d0a680a
DTITLE=ENDS - FOUND
DYEAR=1900
DGENRE=JPop
TTITLE0=THE GATE CRASHER
TTITLE1=SQUABBLE
TTITLE2=KINGDOM
TTITLE3=MY LIFE
TTITLE4=ADORN THE SUN -SOMETIME SOMEPLACE SUNDAY-
TTITLE5=LIMITLESS
TTITLE6=BY THE PEOPLE (Re-lincoln mix)
TTITLE7=FOUND
TTITLE8=Nothing gonna stop us now
TTITLE9=つむぎ (Spinning the earth mix)
EXTD=
EXTT0=
EXTT1=
EXTT2=
EXTT3=
EXTT4=
EXTT5=
EXTT6=
EXTT7=
EXTT8=
EXTT9=
PLAYORDER=
